<?xml version="1.0" encoding="UTF-8" standalone="no"?>
<!DOCTYPE svg PUBLIC "-//W3C//DTD SVG 1.1//EN"
 "http://www.w3.org/Graphics/SVG/1.1/DTD/svg11.dtd">
<!-- Generated by graphviz version 5.0.1 (20220820.1526)
 -->
<!-- Title: G Pages: 1 -->
<svg width="278pt" height="237pt"
 viewBox="0.00 0.00 278.20 237.20" xmlns="http://www.w3.org/2000/svg" xmlns:xlink="http://www.w3.org/1999/xlink">
<g id="graph0" class="graph" transform="scale(1 1) rotate(0) translate(21.6 215.6)">
<title>G</title>
<polygon fill="#111111" stroke="none" points="-21.6,21.6 -21.6,-215.6 256.6,-215.6 256.6,21.6 -21.6,21.6"/>
<!-- index.svelte -->
<g id="node1" class="node">
<title>index.svelte</title>
<path fill="none" stroke="#cfffac" d="M62.67,-124C62.67,-124 6.33,-124 6.33,-124 3.17,-124 0,-120.83 0,-117.67 0,-117.67 0,-111.33 0,-111.33 0,-108.17 3.17,-105 6.33,-105 6.33,-105 62.67,-105 62.67,-105 65.83,-105 69,-108.17 69,-111.33 69,-111.33 69,-117.67 69,-117.67 69,-120.83 65.83,-124 62.67,-124"/>
<text text-anchor="middle" x="34.5" y="-112" font-family="Arial" font-size="10.00" fill="#cfffac">index.svelte</text>
</g>
<!-- pokemon/[slug].json.ts -->
<g id="node2" class="node">
<title>pokemon/[slug].json.ts</title>
<path fill="none" stroke="#cfffac" d="M179.67,-54C179.67,-54 76.33,-54 76.33,-54 73.17,-54 70,-50.83 70,-47.67 70,-47.67 70,-41.33 70,-41.33 70,-38.17 73.17,-35 76.33,-35 76.33,-35 179.67,-35 179.67,-35 182.83,-35 186,-38.17 186,-41.33 186,-41.33 186,-47.67 186,-47.67 186,-50.83 182.83,-54 179.67,-54"/>
<text text-anchor="middle" x="128" y="-42" font-family="Arial" font-size="10.00" fill="#cfffac">pokemon/[slug].json.ts</text>
</g>
<!-- pokemon/[slug].svelte -->
<g id="node3" class="node">
<title>pokemon/[slug].svelte</title>
<path fill="none" stroke="#cfffac" d="M197.67,-124C197.67,-124 97.33,-124 97.33,-124 94.17,-124 91,-120.83 91,-117.67 91,-117.67 91,-111.33 91,-111.33 91,-108.17 94.17,-105 97.33,-105 97.33,-105 197.67,-105 197.67,-105 200.83,-105 204,-108.17 204,-111.33 204,-111.33 204,-117.67 204,-117.67 204,-120.83 200.83,-124 197.67,-124"/>
<text text-anchor="middle" x="147.5" y="-112" font-family="Arial" font-size="10.00" fill="#cfffac">pokemon/[slug].svelte</text>
</g>
<!-- pokemon/[slug].ts -->
<g id="node4" class="node">
<title>pokemon/[slug].ts</title>
<path fill="none" stroke="#cfffac" d="M228.67,-89C228.67,-89 146.33,-89 146.33,-89 143.17,-89 140,-85.83 140,-82.67 140,-82.67 140,-76.33 140,-76.33 140,-73.17 143.17,-70 146.33,-70 146.33,-70 228.67,-70 228.67,-70 231.83,-70 235,-73.17 235,-76.33 235,-76.33 235,-82.67 235,-82.67 235,-85.83 231.83,-89 228.67,-89"/>
<text text-anchor="middle" x="187.5" y="-77" font-family="Arial" font-size="10.00" fill="#cfffac">pokemon/[slug].ts</text>
</g>
<!-- pokemon/index.svelte -->
<g id="node5" class="node">
<title>pokemon/index.svelte</title>
<path fill="none" stroke="#cfffac" d="M112.67,-89C112.67,-89 13.33,-89 13.33,-89 10.17,-89 7,-85.83 7,-82.67 7,-82.67 7,-76.33 7,-76.33 7,-73.17 10.17,-70 13.33,-70 13.33,-70 112.67,-70 112.67,-70 115.83,-70 119,-73.17 119,-76.33 119,-76.33 119,-82.67 119,-82.67 119,-85.83 115.83,-89 112.67,-89"/>
<text text-anchor="middle" x="63" y="-77" font-family="Arial" font-size="10.00" fill="#cfffac">pokemon/index.svelte</text>
</g>
<!-- pokemon/index.ts -->
<g id="node6" class="node">
<title>pokemon/index.ts</title>
<path fill="none" stroke="#cfffac" d="M157.67,-19C157.67,-19 76.33,-19 76.33,-19 73.17,-19 70,-15.83 70,-12.67 70,-12.67 70,-6.33 70,-6.33 70,-3.17 73.17,0 76.33,0 76.33,0 157.67,0 157.67,0 160.83,0 164,-3.17 164,-6.33 164,-6.33 164,-12.67 164,-12.67 164,-15.83 160.83,-19 157.67,-19"/>
<text text-anchor="middle" x="117" y="-7" font-family="Arial" font-size="10.00" fill="#cfffac">pokemon/index.ts</text>
</g>
<!-- table.svelte -->
<g id="node7" class="node">
<title>table.svelte</title>
<path fill="none" stroke="#cfffac" d="M221.67,-194C221.67,-194 167.33,-194 167.33,-194 164.17,-194 161,-190.83 161,-187.67 161,-187.67 161,-181.33 161,-181.33 161,-178.17 164.17,-175 167.33,-175 167.33,-175 221.67,-175 221.67,-175 224.83,-175 228,-178.17 228,-181.33 228,-181.33 228,-187.67 228,-187.67 228,-190.83 224.83,-194 221.67,-194"/>
<text text-anchor="middle" x="194.5" y="-182" font-family="Arial" font-size="10.00" fill="#cfffac">table.svelte</text>
</g>
<!-- types/[slug].svelte -->
<g id="node8" class="node">
<title>types/[slug].svelte</title>
<path fill="none" stroke="#cfffac" d="M216.67,-159C216.67,-159 132.33,-159 132.33,-159 129.17,-159 126,-155.83 126,-152.67 126,-152.67 126,-146.33 126,-146.33 126,-143.17 129.17,-140 132.33,-140 132.33,-140 216.67,-140 216.67,-140 219.83,-140 223,-143.17 223,-146.33 223,-146.33 223,-152.67 223,-152.67 223,-155.83 219.83,-159 216.67,-159"/>
<text text-anchor="middle" x="174.5" y="-147" font-family="Arial" font-size="10.00" fill="#cfffac">types/[slug].svelte</text>
</g>
<!-- types/index.svelte -->
<g id="node9" class="node">
<title>types/index.svelte</title>
<path fill="none" stroke="#cfffac" d="M103.67,-159C103.67,-159 20.33,-159 20.33,-159 17.17,-159 14,-155.83 14,-152.67 14,-152.67 14,-146.33 14,-146.33 14,-143.17 17.17,-140 20.33,-140 20.33,-140 103.67,-140 103.67,-140 106.83,-140 110,-143.17 110,-146.33 110,-146.33 110,-152.67 110,-152.67 110,-155.83 106.83,-159 103.67,-159"/>
<text text-anchor="middle" x="62" y="-147" font-family="Arial" font-size="10.00" fill="#cfffac">types/index.svelte</text>
</g>
</g>
</svg>
