<?xml version="1.0" encoding="UTF-8" standalone="no"?>
<!DOCTYPE svg PUBLIC "-//W3C//DTD SVG 1.1//EN"
 "http://www.w3.org/Graphics/SVG/1.1/DTD/svg11.dtd">
<!-- Generated by graphviz version 2.43.0 (0)
 -->
<!-- Title: G Pages: 1 -->
<svg width="298pt" height="209pt"
 viewBox="0.00 0.00 298.20 209.20" xmlns="http://www.w3.org/2000/svg" xmlns:xlink="http://www.w3.org/1999/xlink">
<g id="graph0" class="graph" transform="scale(1 1) rotate(0) translate(21.6 187.6)">
<title>G</title>
<polygon fill="#111111" stroke="transparent" points="-21.6,21.6 -21.6,-187.6 276.6,-187.6 276.6,21.6 -21.6,21.6"/>
<!-- index.svelte -->
<g id="node1" class="node">
<title>index.svelte</title>
<path fill="none" stroke="#cfffac" d="M76.67,-131C76.67,-131 20.33,-131 20.33,-131 17.17,-131 14,-127.83 14,-124.67 14,-124.67 14,-118.33 14,-118.33 14,-115.17 17.17,-112 20.33,-112 20.33,-112 76.67,-112 76.67,-112 79.83,-112 83,-115.17 83,-118.33 83,-118.33 83,-124.67 83,-124.67 83,-127.83 79.83,-131 76.67,-131"/>
<text text-anchor="middle" x="48.5" y="-119" font-family="Arial" font-size="10.00" fill="#cfffac">index.svelte</text>
</g>
<!-- pokemon/[slug].json.ts -->
<g id="node2" class="node">
<title>pokemon/[slug].json.ts</title>
<path fill="none" stroke="#cfffac" d="M130.67,-89C130.67,-89 27.33,-89 27.33,-89 24.17,-89 21,-85.83 21,-82.67 21,-82.67 21,-76.33 21,-76.33 21,-73.17 24.17,-70 27.33,-70 27.33,-70 130.67,-70 130.67,-70 133.83,-70 137,-73.17 137,-76.33 137,-76.33 137,-82.67 137,-82.67 137,-85.83 133.83,-89 130.67,-89"/>
<text text-anchor="middle" x="79" y="-77" font-family="Arial" font-size="10.00" fill="#cfffac">pokemon/[slug].json.ts</text>
</g>
<!-- pokemon/[slug].svelte -->
<g id="node3" class="node">
<title>pokemon/[slug].svelte</title>
<path fill="none" stroke="#cfffac" d="M211.67,-124C211.67,-124 111.33,-124 111.33,-124 108.17,-124 105,-120.83 105,-117.67 105,-117.67 105,-111.33 105,-111.33 105,-108.17 108.17,-105 111.33,-105 111.33,-105 211.67,-105 211.67,-105 214.83,-105 218,-108.17 218,-111.33 218,-111.33 218,-117.67 218,-117.67 218,-120.83 214.83,-124 211.67,-124"/>
<text text-anchor="middle" x="161.5" y="-112" font-family="Arial" font-size="10.00" fill="#cfffac">pokemon/[slug].svelte</text>
</g>
<!-- pokemon/[slug].ts -->
<g id="node4" class="node">
<title>pokemon/[slug].ts</title>
<path fill="none" stroke="#cfffac" d="M109.67,-166C109.67,-166 27.33,-166 27.33,-166 24.17,-166 21,-162.83 21,-159.67 21,-159.67 21,-153.33 21,-153.33 21,-150.17 24.17,-147 27.33,-147 27.33,-147 109.67,-147 109.67,-147 112.83,-147 116,-150.17 116,-153.33 116,-153.33 116,-159.67 116,-159.67 116,-162.83 112.83,-166 109.67,-166"/>
<text text-anchor="middle" x="68.5" y="-154" font-family="Arial" font-size="10.00" fill="#cfffac">pokemon/[slug].ts</text>
</g>
<!-- pokemon/index.svelte -->
<g id="node5" class="node">
<title>pokemon/index.svelte</title>
<path fill="none" stroke="#cfffac" d="M189.67,-54C189.67,-54 90.33,-54 90.33,-54 87.17,-54 84,-50.83 84,-47.67 84,-47.67 84,-41.33 84,-41.33 84,-38.17 87.17,-35 90.33,-35 90.33,-35 189.67,-35 189.67,-35 192.83,-35 196,-38.17 196,-41.33 196,-41.33 196,-47.67 196,-47.67 196,-50.83 192.83,-54 189.67,-54"/>
<text text-anchor="middle" x="140" y="-42" font-family="Arial" font-size="10.00" fill="#cfffac">pokemon/index.svelte</text>
</g>
<!-- pokemon/index.ts -->
<g id="node6" class="node">
<title>pokemon/index.ts</title>
<path fill="none" stroke="#cfffac" d="M248.67,-89C248.67,-89 167.33,-89 167.33,-89 164.17,-89 161,-85.83 161,-82.67 161,-82.67 161,-76.33 161,-76.33 161,-73.17 164.17,-70 167.33,-70 167.33,-70 248.67,-70 248.67,-70 251.83,-70 255,-73.17 255,-76.33 255,-76.33 255,-82.67 255,-82.67 255,-85.83 251.83,-89 248.67,-89"/>
<text text-anchor="middle" x="208" y="-77" font-family="Arial" font-size="10.00" fill="#cfffac">pokemon/index.ts</text>
</g>
<!-- table.svelte -->
<g id="node7" class="node">
<title>table.svelte</title>
<path fill="none" stroke="#cfffac" d="M60.67,-54C60.67,-54 6.33,-54 6.33,-54 3.17,-54 0,-50.83 0,-47.67 0,-47.67 0,-41.33 0,-41.33 0,-38.17 3.17,-35 6.33,-35 6.33,-35 60.67,-35 60.67,-35 63.83,-35 67,-38.17 67,-41.33 67,-41.33 67,-47.67 67,-47.67 67,-50.83 63.83,-54 60.67,-54"/>
<text text-anchor="middle" x="33.5" y="-42" font-family="Arial" font-size="10.00" fill="#cfffac">table.svelte</text>
</g>
<!-- types/[slug].svelte -->
<g id="node8" class="node">
<title>types/[slug].svelte</title>
<path fill="none" stroke="#cfffac" d="M230.67,-159C230.67,-159 146.33,-159 146.33,-159 143.17,-159 140,-155.83 140,-152.67 140,-152.67 140,-146.33 140,-146.33 140,-143.17 143.17,-140 146.33,-140 146.33,-140 230.67,-140 230.67,-140 233.83,-140 237,-143.17 237,-146.33 237,-146.33 237,-152.67 237,-152.67 237,-155.83 233.83,-159 230.67,-159"/>
<text text-anchor="middle" x="188.5" y="-147" font-family="Arial" font-size="10.00" fill="#cfffac">types/[slug].svelte</text>
</g>
<!-- types/index.svelte -->
<g id="node9" class="node">
<title>types/index.svelte</title>
<path fill="none" stroke="#cfffac" d="M173.67,-19C173.67,-19 90.33,-19 90.33,-19 87.17,-19 84,-15.83 84,-12.67 84,-12.67 84,-6.33 84,-6.33 84,-3.17 87.17,0 90.33,0 90.33,0 173.67,0 173.67,0 176.83,0 180,-3.17 180,-6.33 180,-6.33 180,-12.67 180,-12.67 180,-15.83 176.83,-19 173.67,-19"/>
<text text-anchor="middle" x="132" y="-7" font-family="Arial" font-size="10.00" fill="#cfffac">types/index.svelte</text>
</g>
</g>
</svg>
