<?xml version="1.0" encoding="UTF-8" standalone="no"?>
<!DOCTYPE svg PUBLIC "-//W3C//DTD SVG 1.1//EN"
 "http://www.w3.org/Graphics/SVG/1.1/DTD/svg11.dtd">
<!-- Generated by graphviz version 2.43.0 (0)
 -->
<!-- Title: G Pages: 1 -->
<svg width="587pt" height="398pt"
 viewBox="0.00 0.00 587.20 397.64" xmlns="http://www.w3.org/2000/svg" xmlns:xlink="http://www.w3.org/1999/xlink">
<g id="graph0" class="graph" transform="scale(1 1) rotate(0) translate(21.6 376.04)">
<title>G</title>
<polygon fill="#111111" stroke="transparent" points="-21.6,21.6 -21.6,-376.04 565.6,-376.04 565.6,21.6 -21.6,21.6"/>
<!-- app.d.ts -->
<g id="node1" class="node">
<title>app.d.ts</title>
<path fill="none" stroke="#cfffac" d="M167.67,-239C167.67,-239 126.33,-239 126.33,-239 123.17,-239 120,-235.83 120,-232.67 120,-232.67 120,-226.33 120,-226.33 120,-223.17 123.17,-220 126.33,-220 126.33,-220 167.67,-220 167.67,-220 170.83,-220 174,-223.17 174,-226.33 174,-226.33 174,-232.67 174,-232.67 174,-235.83 170.83,-239 167.67,-239"/>
<text text-anchor="middle" x="147" y="-227" font-family="Arial" font-size="10.00" fill="#cfffac">app.d.ts</text>
</g>
<!-- components/Cell.svelte -->
<g id="node2" class="node">
<title>components/Cell.svelte</title>
<path fill="none" stroke="#cfffac" d="M402.67,-332.53C402.67,-332.53 296.33,-332.53 296.33,-332.53 293.17,-332.53 290,-329.37 290,-326.2 290,-326.2 290,-319.87 290,-319.87 290,-316.7 293.17,-313.53 296.33,-313.53 296.33,-313.53 402.67,-313.53 402.67,-313.53 405.83,-313.53 409,-316.7 409,-319.87 409,-319.87 409,-326.2 409,-326.2 409,-329.37 405.83,-332.53 402.67,-332.53"/>
<text text-anchor="middle" x="349.5" y="-320.53" font-family="Arial" font-size="10.00" fill="#cfffac">components/Cell.svelte</text>
</g>
<!-- components/PokemonImages.svelte -->
<g id="node3" class="node">
<title>components/PokemonImages.svelte</title>
<path fill="none" stroke="#cfffac" d="M419.67,-119C419.67,-119 256.33,-119 256.33,-119 253.17,-119 250,-115.83 250,-112.67 250,-112.67 250,-106.33 250,-106.33 250,-103.17 253.17,-100 256.33,-100 256.33,-100 419.67,-100 419.67,-100 422.83,-100 426,-103.17 426,-106.33 426,-106.33 426,-112.67 426,-112.67 426,-115.83 422.83,-119 419.67,-119"/>
<text text-anchor="middle" x="338" y="-107" font-family="Arial" font-size="10.00" fill="#cfffac">components/PokemonImages.svelte</text>
</g>
<!-- components/Row.svelte -->
<g id="node4" class="node">
<title>components/Row.svelte</title>
<path fill="none" stroke="#cfffac" d="M537,-354.44C537,-354.44 427.66,-354.44 427.66,-354.44 424.5,-354.44 421.33,-351.27 421.33,-348.11 421.33,-348.11 421.33,-341.77 421.33,-341.77 421.33,-338.61 424.5,-335.44 427.66,-335.44 427.66,-335.44 537,-335.44 537,-335.44 540.16,-335.44 543.33,-338.61 543.33,-341.77 543.33,-341.77 543.33,-348.11 543.33,-348.11 543.33,-351.27 540.16,-354.44 537,-354.44"/>
<text text-anchor="middle" x="482.33" y="-342.44" font-family="Arial" font-size="10.00" fill="#cfffac">components/Row.svelte</text>
</g>
<!-- components/Table.svelte -->
<g id="node5" class="node">
<title>components/Table.svelte</title>
<path fill="none" stroke="#cfffac" d="M490.94,-229C490.94,-229 378.61,-229 378.61,-229 375.44,-229 372.27,-225.83 372.27,-222.67 372.27,-222.67 372.27,-216.33 372.27,-216.33 372.27,-213.17 375.44,-210 378.61,-210 378.61,-210 490.94,-210 490.94,-210 494.11,-210 497.27,-213.17 497.27,-216.33 497.27,-216.33 497.27,-222.67 497.27,-222.67 497.27,-225.83 494.11,-229 490.94,-229"/>
<text text-anchor="middle" x="434.77" y="-217" font-family="Arial" font-size="10.00" fill="#cfffac">components/Table.svelte</text>
</g>
<!-- components/TableBody.svelte -->
<g id="node6" class="node">
<title>components/TableBody.svelte</title>
<path fill="none" stroke="#cfffac" d="M340.67,-239C340.67,-239 206.33,-239 206.33,-239 203.17,-239 200,-235.83 200,-232.67 200,-232.67 200,-226.33 200,-226.33 200,-223.17 203.17,-220 206.33,-220 206.33,-220 340.67,-220 340.67,-220 343.83,-220 347,-223.17 347,-226.33 347,-226.33 347,-232.67 347,-232.67 347,-235.83 343.83,-239 340.67,-239"/>
<text text-anchor="middle" x="273.5" y="-227" font-family="Arial" font-size="10.00" fill="#cfffac">components/TableBody.svelte</text>
</g>
<!-- components/TableWrap.svelte -->
<g id="node7" class="node">
<title>components/TableWrap.svelte</title>
<path fill="none" stroke="#cfffac" d="M341.67,-279C341.67,-279 206.33,-279 206.33,-279 203.17,-279 200,-275.83 200,-272.67 200,-272.67 200,-266.33 200,-266.33 200,-263.17 203.17,-260 206.33,-260 206.33,-260 341.67,-260 341.67,-260 344.83,-260 348,-263.17 348,-266.33 348,-266.33 348,-272.67 348,-272.67 348,-275.83 344.83,-279 341.67,-279"/>
<text text-anchor="middle" x="274" y="-267" font-family="Arial" font-size="10.00" fill="#cfffac">components/TableWrap.svelte</text>
</g>
<!-- components/index.js -->
<g id="node8" class="node">
<title>components/index.js</title>
<path fill="none" stroke="#c6c5fe" d="M469.34,-305.53C469.34,-305.53 375.01,-305.53 375.01,-305.53 371.84,-305.53 368.68,-302.37 368.68,-299.2 368.68,-299.2 368.68,-292.87 368.68,-292.87 368.68,-289.7 371.84,-286.53 375.01,-286.53 375.01,-286.53 469.34,-286.53 469.34,-286.53 472.51,-286.53 475.68,-289.7 475.68,-292.87 475.68,-292.87 475.68,-299.2 475.68,-299.2 475.68,-302.37 472.51,-305.53 469.34,-305.53"/>
<text text-anchor="middle" x="422.18" y="-293.53" font-family="Arial" font-size="10.00" fill="#c6c5fe">components/index.js</text>
</g>
<!-- components/index.js&#45;&gt;components/Cell.svelte -->
<g id="edge1" class="edge">
<title>components/index.js&#45;&gt;components/Cell.svelte</title>
<path fill="none" stroke="#757575" d="M396.35,-305.63C392.6,-307.02 388.69,-308.47 384.79,-309.92"/>
<polygon fill="#757575" stroke="#757575" points="383.4,-306.71 375.24,-313.47 385.84,-313.27 383.4,-306.71"/>
</g>
<!-- components/index.js&#45;&gt;components/Row.svelte -->
<g id="edge2" class="edge">
<title>components/index.js&#45;&gt;components/Row.svelte</title>
<path fill="none" stroke="#757575" d="M434.06,-305.69C442.22,-312.33 453.23,-321.28 462.68,-328.96"/>
<polygon fill="#757575" stroke="#757575" points="460.5,-331.7 470.47,-335.3 464.92,-326.27 460.5,-331.7"/>
</g>
<!-- components/index.js&#45;&gt;components/Table.svelte -->
<g id="edge3" class="edge">
<title>components/index.js&#45;&gt;components/Table.svelte</title>
<path fill="none" stroke="#757575" d="M423.77,-286.34C425.71,-274.56 429.03,-254.38 431.52,-239.27"/>
<polygon fill="#757575" stroke="#757575" points="434.98,-239.79 433.15,-229.36 428.07,-238.65 434.98,-239.79"/>
</g>
<!-- components/types/md/Type1.svx -->
<g id="node9" class="node">
<title>components/types/md/Type1.svx</title>
<path fill="none" stroke="#cfffac" d="M154.67,-181.25C154.67,-181.25 6.33,-181.25 6.33,-181.25 3.17,-181.25 0,-178.09 0,-174.92 0,-174.92 0,-168.59 0,-168.59 0,-165.42 3.17,-162.25 6.33,-162.25 6.33,-162.25 154.67,-162.25 154.67,-162.25 157.83,-162.25 161,-165.42 161,-168.59 161,-168.59 161,-174.92 161,-174.92 161,-178.09 157.83,-181.25 154.67,-181.25"/>
<text text-anchor="middle" x="80.5" y="-169.25" font-family="Arial" font-size="10.00" fill="#cfffac">components/types/md/Type1.svx</text>
</g>
<!-- components/types/md/Type2.svx -->
<g id="node10" class="node">
<title>components/types/md/Type2.svx</title>
<path fill="none" stroke="#cfffac" d="M481.65,-187.9C481.65,-187.9 333.31,-187.9 333.31,-187.9 330.15,-187.9 326.98,-184.73 326.98,-181.57 326.98,-181.57 326.98,-175.23 326.98,-175.23 326.98,-172.07 330.15,-168.9 333.31,-168.9 333.31,-168.9 481.65,-168.9 481.65,-168.9 484.81,-168.9 487.98,-172.07 487.98,-175.23 487.98,-175.23 487.98,-181.57 487.98,-181.57 487.98,-184.73 484.81,-187.9 481.65,-187.9"/>
<text text-anchor="middle" x="407.48" y="-175.9" font-family="Arial" font-size="10.00" fill="#cfffac">components/types/md/Type2.svx</text>
</g>
<!-- components/types/md/index.ts -->
<g id="node11" class="node">
<title>components/types/md/index.ts</title>
<path fill="none" stroke="#c6c5fe" d="M313.68,-159C313.68,-159 175.35,-159 175.35,-159 172.18,-159 169.02,-155.83 169.02,-152.67 169.02,-152.67 169.02,-146.33 169.02,-146.33 169.02,-143.17 172.18,-140 175.35,-140 175.35,-140 313.68,-140 313.68,-140 316.85,-140 320.02,-143.17 320.02,-146.33 320.02,-146.33 320.02,-152.67 320.02,-152.67 320.02,-155.83 316.85,-159 313.68,-159"/>
<text text-anchor="middle" x="244.52" y="-147" font-family="Arial" font-size="10.00" fill="#c6c5fe">components/types/md/index.ts</text>
</g>
<!-- components/types/md/index.ts&#45;&gt;components/types/md/Type1.svx -->
<g id="edge4" class="edge">
<title>components/types/md/index.ts&#45;&gt;components/types/md/Type1.svx</title>
<path fill="none" stroke="#757575" d="M174.48,-159C169.9,-159.62 165.27,-160.25 160.65,-160.88"/>
<polygon fill="#757575" stroke="#757575" points="160,-157.43 150.56,-162.25 160.94,-164.37 160,-157.43"/>
</g>
<!-- components/types/md/index.ts&#45;&gt;components/types/md/Type2.svx -->
<g id="edge5" class="edge">
<title>components/types/md/index.ts&#45;&gt;components/types/md/Type2.svx</title>
<path fill="none" stroke="#757575" d="M298.33,-159.04C312.79,-161.61 328.57,-164.41 343.53,-167.06"/>
<polygon fill="#757575" stroke="#757575" points="343.27,-170.57 353.72,-168.87 344.49,-163.67 343.27,-170.57"/>
</g>
<!-- routes/index.svelte -->
<g id="node12" class="node">
<title>routes/index.svelte</title>
<path fill="none" stroke="#cfffac" d="M292.67,-199C292.67,-199 206.33,-199 206.33,-199 203.17,-199 200,-195.83 200,-192.67 200,-192.67 200,-186.33 200,-186.33 200,-183.17 203.17,-180 206.33,-180 206.33,-180 292.67,-180 292.67,-180 295.83,-180 299,-183.17 299,-186.33 299,-186.33 299,-192.67 299,-192.67 299,-195.83 295.83,-199 292.67,-199"/>
<text text-anchor="middle" x="249.5" y="-187" font-family="Arial" font-size="10.00" fill="#cfffac">routes/index.svelte</text>
</g>
<!-- routes/pokemon/[slug].json.ts -->
<g id="node13" class="node">
<title>routes/pokemon/[slug].json.ts</title>
<path fill="none" stroke="#cfffac" d="M389.67,-79C389.67,-79 256.33,-79 256.33,-79 253.17,-79 250,-75.83 250,-72.67 250,-72.67 250,-66.33 250,-66.33 250,-63.17 253.17,-60 256.33,-60 256.33,-60 389.67,-60 389.67,-60 392.83,-60 396,-63.17 396,-66.33 396,-66.33 396,-72.67 396,-72.67 396,-75.83 392.83,-79 389.67,-79"/>
<text text-anchor="middle" x="323" y="-67" font-family="Arial" font-size="10.00" fill="#cfffac">routes/pokemon/[slug].json.ts</text>
</g>
<!-- routes/pokemon/[slug].svelte -->
<g id="node14" class="node">
<title>routes/pokemon/[slug].svelte</title>
<path fill="none" stroke="#cfffac" d="M256.67,-319C256.67,-319 126.33,-319 126.33,-319 123.17,-319 120,-315.83 120,-312.67 120,-312.67 120,-306.33 120,-306.33 120,-303.17 123.17,-300 126.33,-300 126.33,-300 256.67,-300 256.67,-300 259.83,-300 263,-303.17 263,-306.33 263,-306.33 263,-312.67 263,-312.67 263,-315.83 259.83,-319 256.67,-319"/>
<text text-anchor="middle" x="191.5" y="-307" font-family="Arial" font-size="10.00" fill="#cfffac">routes/pokemon/[slug].svelte</text>
</g>
<!-- routes/pokemon/[slug].ts -->
<g id="node15" class="node">
<title>routes/pokemon/[slug].ts</title>
<path fill="none" stroke="#cfffac" d="M218.67,-119C218.67,-119 106.33,-119 106.33,-119 103.17,-119 100,-115.83 100,-112.67 100,-112.67 100,-106.33 100,-106.33 100,-103.17 103.17,-100 106.33,-100 106.33,-100 218.67,-100 218.67,-100 221.83,-100 225,-103.17 225,-106.33 225,-106.33 225,-112.67 225,-112.67 225,-115.83 221.83,-119 218.67,-119"/>
<text text-anchor="middle" x="162.5" y="-107" font-family="Arial" font-size="10.00" fill="#cfffac">routes/pokemon/[slug].ts</text>
</g>
<!-- routes/pokemon/index.svelte -->
<g id="node16" class="node">
<title>routes/pokemon/index.svelte</title>
<path fill="none" stroke="#cfffac" d="M385.67,-39C385.67,-39 256.33,-39 256.33,-39 253.17,-39 250,-35.83 250,-32.67 250,-32.67 250,-26.33 250,-26.33 250,-23.17 253.17,-20 256.33,-20 256.33,-20 385.67,-20 385.67,-20 388.83,-20 392,-23.17 392,-26.33 392,-26.33 392,-32.67 392,-32.67 392,-35.83 388.83,-39 385.67,-39"/>
<text text-anchor="middle" x="321" y="-27" font-family="Arial" font-size="10.00" fill="#cfffac">routes/pokemon/index.svelte</text>
</g>
<!-- routes/pokemon/index.ts -->
<g id="node17" class="node">
<title>routes/pokemon/index.ts</title>
<path fill="none" stroke="#cfffac" d="M537.67,-19C537.67,-19 426.33,-19 426.33,-19 423.17,-19 420,-15.83 420,-12.67 420,-12.67 420,-6.33 420,-6.33 420,-3.17 423.17,0 426.33,0 426.33,0 537.67,0 537.67,0 540.83,0 544,-3.17 544,-6.33 544,-6.33 544,-12.67 544,-12.67 544,-15.83 540.83,-19 537.67,-19"/>
<text text-anchor="middle" x="482" y="-7" font-family="Arial" font-size="10.00" fill="#cfffac">routes/pokemon/index.ts</text>
</g>
<!-- routes/table.svelte -->
<g id="node18" class="node">
<title>routes/table.svelte</title>
<path fill="none" stroke="#cfffac" d="M510.67,-59C510.67,-59 426.33,-59 426.33,-59 423.17,-59 420,-55.83 420,-52.67 420,-52.67 420,-46.33 420,-46.33 420,-43.17 423.17,-40 426.33,-40 426.33,-40 510.67,-40 510.67,-40 513.83,-40 517,-43.17 517,-46.33 517,-46.33 517,-52.67 517,-52.67 517,-55.83 513.83,-59 510.67,-59"/>
<text text-anchor="middle" x="468.5" y="-47" font-family="Arial" font-size="10.00" fill="#cfffac">routes/table.svelte</text>
</g>
<!-- routes/types/[slug].svelte -->
<g id="node19" class="node">
<title>routes/types/[slug].svelte</title>
<path fill="none" stroke="#cfffac" d="M220.67,-79C220.67,-79 106.33,-79 106.33,-79 103.17,-79 100,-75.83 100,-72.67 100,-72.67 100,-66.33 100,-66.33 100,-63.17 103.17,-60 106.33,-60 106.33,-60 220.67,-60 220.67,-60 223.83,-60 227,-63.17 227,-66.33 227,-66.33 227,-72.67 227,-72.67 227,-75.83 223.83,-79 220.67,-79"/>
<text text-anchor="middle" x="163.5" y="-67" font-family="Arial" font-size="10.00" fill="#cfffac">routes/types/[slug].svelte</text>
</g>
<!-- routes/types/index.svelte -->
<g id="node20" class="node">
<title>routes/types/index.svelte</title>
<path fill="none" stroke="#cfffac" d="M219.67,-39C219.67,-39 106.33,-39 106.33,-39 103.17,-39 100,-35.83 100,-32.67 100,-32.67 100,-26.33 100,-26.33 100,-23.17 103.17,-20 106.33,-20 106.33,-20 219.67,-20 219.67,-20 222.83,-20 226,-23.17 226,-26.33 226,-26.33 226,-32.67 226,-32.67 226,-35.83 222.83,-39 219.67,-39"/>
<text text-anchor="middle" x="163" y="-27" font-family="Arial" font-size="10.00" fill="#cfffac">routes/types/index.svelte</text>
</g>
<!-- utils/data.ts -->
<g id="node21" class="node">
<title>utils/data.ts</title>
<path fill="none" stroke="#cfffac" d="M171.67,-279C171.67,-279 116.33,-279 116.33,-279 113.17,-279 110,-275.83 110,-272.67 110,-272.67 110,-266.33 110,-266.33 110,-263.17 113.17,-260 116.33,-260 116.33,-260 171.67,-260 171.67,-260 174.83,-260 178,-263.17 178,-266.33 178,-266.33 178,-272.67 178,-272.67 178,-275.83 174.83,-279 171.67,-279"/>
<text text-anchor="middle" x="144" y="-267" font-family="Arial" font-size="10.00" fill="#cfffac">utils/data.ts</text>
</g>
</g>
</svg>
